<svg width="24" height="24" fill="none" xmlns="http://www.w3.org/2000/svg"><g clip-path="url(#clip0)" fill="#013A4C"><path d="M14 17.02h-4v7h4v-7zM14-.02h-4v7h4v-7zM6.98 10h-7v4h7v-4zm17.04 0h-7v4h7v-4zM7.031 14.139l-4.95 4.95 2.829 2.828 4.95-4.95-2.83-2.827zm12.06-12.056l-4.95 4.95 2.829 2.828 4.95-4.95-2.829-2.828zM4.912 2.08L2.084 4.91l4.95 4.949 2.828-2.828-4.95-4.95zm12.056 12.06l-2.829 2.83 4.95 4.95 2.828-2.83-4.95-4.95z"/></g><defs><clipPath id="clip0"><path fill="#fff" d="M0 0h24v24H0z"/></clipPath></defs></svg>