<svg width="109" height="109" fill="none" xmlns="http://www.w3.org/2000/svg"><path d="M54.5 109c30.1 0 54.5-24.4 54.5-54.5S84.6 0 54.5 0 0 24.4 0 54.5 24.4 109 54.5 109z" fill="#013A4C"/><path d="M49.829 55.279l-24.993 25.07" stroke="#fff" stroke-width="3.4"/><path d="M39.396 26.004h-7.63m3.814-3.814v7.63m43.523 41.575H71.55m3.738-3.737v7.552M62.052 27.873v-5.684m20.866 22.735h-5.684m-26.86 9.81l-11.445-2.647 10.043-6.073-1.012-11.757 8.876 7.708 10.9-4.516-4.594 10.823 7.708 8.875-11.756-1.012L53.02 66.18l-2.647-11.445v0z" stroke="#fff" stroke-width="3.4" stroke-linecap="square"/></svg>