<svg width="140" height="31" fill="none" xmlns="http://www.w3.org/2000/svg"><path d="M75.518 5.905h3.865V30.64h-3.865V5.905zM51.141 27.35c-2.75 0-4.89-1.649-5.685-4.034l14.906-3.88c-.637-5.99-5.01-9.113-9.51-9.113a9.315 9.315 0 00-3.924.85 9.364 9.364 0 00-3.21 2.425c-1.584 1.86-2.442 4.322-2.442 7.028 0 6.37 4.46 10.305 9.937 10.305 3.673 0 6.523-1.666 8.05-3.863l-2.732-2.298c-1.114 1.648-3.296 2.58-5.39 2.58zm-.31-13.428c2.441 0 4.186 1.314 5.07 3.273l-10.78 2.804c.063-3.43 2.29-6.077 5.71-6.077zm-19.93-3.596c-5.154 0-8.41 3.307-8.41 8.29V30.64h3.867V18.617c0-2.984 1.45-4.604 4.54-4.604 3.089 0 4.518 1.616 4.518 4.604V30.64h3.867V18.617c.001-4.984-3.23-8.291-8.383-8.291zm-20.62 20.61A10.21 10.21 0 014.587 29.2 10.294 10.294 0 01.81 24.575a10.36 10.36 0 01-.584-5.954c.395-2 1.37-3.836 2.804-5.277a10.231 10.231 0 015.246-2.822 10.196 10.196 0 015.922.584c1.873.78 3.474 2.1 4.6 3.795a10.346 10.346 0 01-1.274 13.012 10.23 10.23 0 01-7.244 3.023zm0-16.91c-3.511 0-6.37 2.964-6.37 6.609 0 3.644 2.856 6.607 6.37 6.607 3.513 0 6.37-2.964 6.37-6.607 0-3.644-2.857-6.61-6.37-6.61zm81.317 16.91c-2.027 0-4.008-.604-5.694-1.736a10.295 10.295 0 01-3.775-4.625 10.36 10.36 0 01-.585-5.954c.395-2 1.371-3.836 2.804-5.277a10.231 10.231 0 015.247-2.822 10.196 10.196 0 015.921.584c1.873.78 3.474 2.1 4.601 3.795a10.346 10.346 0 01-1.275 13.011 10.231 10.231 0 01-7.244 3.024zm0-16.91c-3.51 0-6.37 2.964-6.37 6.609 0 3.644 2.858 6.607 6.37 6.607 3.513 0 6.37-2.964 6.37-6.607 0-3.644-2.856-6.61-6.37-6.61zm-25.314.686v-1.035c0-1.726.064-2.497.783-3.351.718-.855 1.982-1.24 3.638-1.24.813-.015 1.625.061 2.42.228v-3.5a14 14 0 00-2.945-.287c-2.492 0-4.261.61-5.519 1.646-1.7 1.401-2.228 3.228-2.228 6.206V30.64H66.3V18.115l5.335-1.4V13.31l-5.35 1.401zm63.157 3.614v4.325c0 2.983-1.443 4.603-4.489 4.604-1.519 0-2.655-.44-3.379-1.209-.858-.912-1.076-1.843-1.081-3.368V10.633h-3.865v12.024c0 1.704-.355 2.674-1.102 3.421-.748.747-1.864 1.183-3.387 1.184-3.01 0-4.459-1.631-4.459-4.605V10.633h-3.867v12.474c0 2.297.637 4.138 2.084 5.567 1.656 1.627 3.843 2.275 6.27 2.275 2.676 0 4.952-1.009 6.393-2.656 1.435 1.641 3.706 2.656 6.422 2.656 2.548 0 4.742-.769 6.181-2.214 1.467-1.47 2.145-3.123 2.145-5.84v-4.569h-3.866zM129.44 2.85h3.867v3.888h-3.867V2.85zm0 7.775h3.867v3.887h-3.867v-3.887zm-3.865-3.887h3.866v3.887h-3.866V6.737zm7.732 0h3.866v3.887h-3.866V6.737zM136.133 0H140v3.888h-3.867V0z" fill="#000"/></svg>